<svg width="122" height="22" viewBox="0 0 122 22" fill="none" xmlns="http://www.w3.org/2000/svg">
<path opacity="0.9" d="M22.714 14.4181C23.8993 13.4661 24.828 12.6867 25.5 12.0801C26.172 11.4641 26.7367 10.8247 27.194 10.1621C27.6607 9.49006 27.894 8.83206 27.894 8.18806C27.894 7.5814 27.7447 7.1054 27.446 6.76006C27.1567 6.4054 26.6853 6.22806 26.032 6.22806C25.3973 6.22806 24.9027 6.42873 24.548 6.83006C24.2027 7.22206 24.016 7.7494 23.988 8.41206H22.756C22.7933 7.36673 23.1107 6.5594 23.708 5.99006C24.3053 5.42073 25.0753 5.13606 26.018 5.13606C26.9793 5.13606 27.74 5.40206 28.3 5.93406C28.8693 6.46606 29.154 7.19873 29.154 8.13206C29.154 8.90673 28.9207 9.66273 28.454 10.4001C27.9967 11.1281 27.474 11.7721 26.886 12.3321C26.298 12.8827 25.5467 13.5267 24.632 14.2641H29.448V15.3281H22.714V14.4181Z" fill="#030A1B"/>
<g opacity="0.5">
<path d="M15.0787 9.55835H1.26238C0.56632 9.55835 0 10.1247 0 10.8208V14.1934H16.3411V10.8208C16.3411 10.1247 15.7748 9.55835 15.0787 9.55835Z" fill="#030A1B"/>
<path d="M8.64929 6.59338H12.6982V8.60104H8.64929V6.59338Z" fill="#030A1B"/>
<path d="M2.68528 5.63596H8.17042H13.6556V8.6011H14.8514V4.44006H1.48941V8.6011H2.68528V5.63596Z" fill="#030A1B"/>
<path d="M3.6427 6.59338H7.69162V8.60104H3.6427V6.59338Z" fill="#030A1B"/>
<path d="M0.510651 15.1511H15.8299V16.6259H0.510651V15.1511Z" fill="#030A1B"/>
</g>
<path opacity="0.9" d="M69.714 14.4181C70.8993 13.4661 71.828 12.6867 72.5 12.0801C73.172 11.4641 73.7367 10.8247 74.194 10.1621C74.6607 9.49006 74.894 8.83206 74.894 8.18806C74.894 7.5814 74.7447 7.1054 74.446 6.76006C74.1567 6.4054 73.6853 6.22806 73.032 6.22806C72.3973 6.22806 71.9027 6.42873 71.548 6.83006C71.2027 7.22206 71.016 7.7494 70.988 8.41206H69.756C69.7933 7.36673 70.1107 6.5594 70.708 5.99006C71.3053 5.42073 72.0753 5.13606 73.018 5.13606C73.9793 5.13606 74.74 5.40206 75.3 5.93406C75.8693 6.46606 76.154 7.19873 76.154 8.13206C76.154 8.90673 75.9207 9.66273 75.454 10.4001C74.9967 11.1281 74.474 11.7721 73.886 12.3321C73.298 12.8827 72.5467 13.5267 71.632 14.2641H76.448V15.3281H69.714V14.4181Z" fill="#030A1B"/>
<g opacity="0.7">
<path d="M54.9174 8.95667L56.2119 10.9654L57.1195 9.92383L55.7655 8.33174C56.3458 7.48361 56.197 6.08495 55.334 4.93924C54.3222 3.58522 52.7003 3.06444 51.7183 3.79353C50.7363 4.52262 50.766 6.21887 51.7778 7.57289C52.6557 8.73349 53.9502 9.26914 54.9174 8.95667Z" fill="#030A1B"/>
<path d="M58.7717 11.8727L57.7897 13.4053L60.1704 17.0805C60.5126 17.6161 61.2417 17.75 61.7625 17.3632L61.8517 17.2888C62.3576 16.9019 62.4469 16.1728 62.0303 15.6818L58.7717 11.8727Z" fill="#030A1B"/>
<path d="M63.9209 5.04353C63.7869 4.87986 63.534 4.89473 63.415 5.05841C63.415 5.05841 61.7187 7.2308 61.2426 7.84085C61.1682 7.93013 61.0343 7.945 60.945 7.88549C60.8557 7.81109 60.8259 7.69205 60.9003 7.5879L62.9388 4.71618C63.0281 4.59715 63.0281 4.4186 62.9239 4.29956C62.79 4.13589 62.5371 4.15076 62.418 4.31444C62.418 4.31444 60.7218 6.48683 60.2457 7.09688C60.1713 7.18616 60.0373 7.20104 59.9481 7.14152C59.8588 7.06712 59.829 6.94809 59.9034 6.84393C60.3647 6.20412 61.9568 3.95734 61.9568 3.95734C62.0758 3.79366 62.0163 3.55559 61.8229 3.46631C61.689 3.40679 61.5253 3.45143 61.4211 3.57047L59.1297 6.51658L58.8321 6.90345C58.5345 7.30519 58.4006 7.78134 58.4601 8.19796L58.594 9.06096L52.8952 15.6674C52.4786 16.1584 52.5679 16.8875 53.0738 17.2744L53.1631 17.3488C53.669 17.7356 54.3981 17.6017 54.7552 17.0661L59.457 9.73053L60.3349 9.6115C60.7516 9.55198 61.1682 9.28415 61.4806 8.88241L61.7782 8.49555L63.9357 5.46015C64.025 5.34112 64.025 5.16257 63.9209 5.04353Z" fill="#030A1B"/>
</g>
<path opacity="0.9" d="M117.532 6.48006V5.31806H120.164V15.4401H118.876V6.48006H117.532Z" fill="#030A1B"/>
<g opacity="0.7">
<path d="M101.316 3.44006C100.098 3.44006 99.1053 4.43233 99.1053 5.65059V11.3611H99.8421V5.65059C99.8421 4.8278 100.493 4.17691 101.316 4.17691C102.01 4.17691 102.582 4.64313 102.743 5.28217H103.492C103.315 4.23952 102.408 3.44006 101.316 3.44006ZM103.158 5.65059C102.341 5.65059 101.684 6.30785 101.684 7.12427H104.632C104.632 6.30785 103.974 5.65059 103.158 5.65059ZM102.053 7.86112C101.849 7.86112 101.684 8.02606 101.684 8.22954V8.59796C101.684 8.80143 101.849 8.96638 102.053 8.96638C102.256 8.96638 102.421 8.80143 102.421 8.59796V8.22954C102.421 8.02606 102.256 7.86112 102.053 7.86112ZM104.263 7.86112C104.06 7.86112 103.895 8.02606 103.895 8.22954V8.59796C103.895 8.80143 104.06 8.96638 104.263 8.96638C104.467 8.96638 104.632 8.80143 104.632 8.59796V8.22954C104.632 8.02606 104.467 7.86112 104.263 7.86112ZM103.158 9.15059C102.954 9.15059 102.789 9.31555 102.789 9.51901V9.88743C102.789 10.0909 102.954 10.2559 103.158 10.2559C103.361 10.2559 103.526 10.0909 103.526 9.88743V9.51901C103.526 9.31555 103.361 9.15059 103.158 9.15059ZM98 11.7295C98 14.2809 100.054 16.3348 102.605 16.3348H107.395C109.946 16.3348 112 14.2809 112 11.7295H98ZM101.73 16.7032C101.873 17.3395 102.371 17.8085 102.974 17.8085H107.026C107.629 17.8085 108.127 17.3395 108.27 16.7032H101.73Z" fill="#030A1B"/>
</g>
</svg>
