<svg width="41" height="53" viewBox="0 0 41 53" fill="none" xmlns="http://www.w3.org/2000/svg">
<path d="M9.6468 52.3842H13.5307C14.0366 52.3842 14.434 51.9867 14.434 51.481V42.6471C14.434 39.3412 17.1077 36.6676 20.4135 36.6676C22.0033 36.6676 23.5027 37.2998 24.6408 38.4199C25.7608 39.558 26.393 41.0574 26.393 42.6471V51.481C26.393 51.9868 26.7905 52.3842 27.2963 52.3842H31.1803C36.4915 52.3842 40.827 48.0486 40.827 42.7374V18.5483C40.827 18.2955 40.7186 18.0425 40.538 17.8799L21.0278 0.230388C20.6845 -0.0767961 20.1426 -0.0767961 19.7994 0.230388L0.288998 17.8799C0.108387 18.0425 0 18.2955 0 18.5483V42.7375C0 48.0486 4.33566 52.3842 9.6468 52.3842Z" fill="#FE753F"/>
</svg>
