<svg width="33" height="30" viewBox="0 0 33 30" fill="none" xmlns="http://www.w3.org/2000/svg">
<rect x="0.488617" width="31.5236" height="30" rx="15" fill="#FE753F"/>
<g clip-path="url(#clip0_1_147)">
<path d="M20.4536 9H12.0473C11.4899 9 10.9554 9.21071 10.5612 9.58579C10.1671 9.96086 9.94571 10.4696 9.94571 11V19C9.94571 19.5304 10.1671 20.0391 10.5612 20.4142C10.9554 20.7893 11.4899 21 12.0473 21H20.4536C21.011 21 21.5455 20.7893 21.9396 20.4142C22.3337 20.0391 22.5552 19.5304 22.5552 19V11C22.5552 10.4696 22.3337 9.96086 21.9396 9.58579C21.5455 9.21071 21.011 9 20.4536 9V9ZM21.5044 19C21.5044 19.2652 21.3937 19.5196 21.1966 19.7071C20.9995 19.8946 20.7323 20 20.4536 20H12.0473C11.7686 20 11.5013 19.8946 11.3043 19.7071C11.1072 19.5196 10.9965 19.2652 10.9965 19V11C10.9965 10.7348 11.1072 10.4804 11.3043 10.2929C11.5013 10.1054 11.7686 10 12.0473 10H20.4536C20.7323 10 20.9995 10.1054 21.1966 10.2929C21.3937 10.4804 21.5044 10.7348 21.5044 11V19Z" fill="white"/>
<path d="M16.2504 12C15.6269 12 15.0174 12.1759 14.499 12.5056C13.9806 12.8352 13.5766 13.3038 13.338 13.8519C13.0994 14.4001 13.037 15.0033 13.1586 15.5853C13.2802 16.1672 13.5805 16.7018 14.0213 17.1213C14.4622 17.5409 15.0239 17.8266 15.6354 17.9424C16.2469 18.0581 16.8807 17.9987 17.4567 17.7716C18.0328 17.5446 18.5251 17.1601 18.8715 16.6667C19.2179 16.1734 19.4028 15.5933 19.4028 15C19.4028 14.2044 19.0706 13.4413 18.4794 12.8787C17.8883 12.3161 17.0864 12 16.2504 12ZM16.2504 17C15.8347 17 15.4284 16.8827 15.0828 16.6629C14.7372 16.4432 14.4678 16.1308 14.3088 15.7654C14.1497 15.3999 14.1081 14.9978 14.1892 14.6098C14.2703 14.2219 14.4704 13.8655 14.7643 13.5858C15.0583 13.3061 15.4327 13.1156 15.8404 13.0384C16.2481 12.9613 16.6706 13.0009 17.0546 13.1522C17.4386 13.3036 17.7669 13.56 17.9978 13.8889C18.2287 14.2178 18.352 14.6044 18.352 15C18.352 15.5304 18.1305 16.0391 17.7364 16.4142C17.3423 16.7893 16.8078 17 16.2504 17Z" fill="white"/>
<path d="M19.6655 12.5001C20.1008 12.5001 20.4536 12.1643 20.4536 11.7501C20.4536 11.3358 20.1008 11.0001 19.6655 11.0001C19.2303 11.0001 18.8774 11.3358 18.8774 11.7501C18.8774 12.1643 19.2303 12.5001 19.6655 12.5001Z" fill="white"/>
</g>
<defs>
<clipPath id="clip0_1_147">
<rect width="12.6095" height="12" fill="white" transform="translate(9.94571 9)"/>
</clipPath>
</defs>
</svg>
