<svg width="254" height="104" viewBox="0 0 254 104" fill="none" xmlns="http://www.w3.org/2000/svg">
<path d="M21.884 84V82.986H23.834V70.376H21.884V69.362H25.888L31.166 80.36L36.158 69.362H40.24V70.376H38.29V82.986H40.24V84H34.884V82.986H36.808V70.896L31.244 83.038H30.776L25.03 70.896V82.986H26.98V84H21.884ZM43.9168 87.718V86.548H45.0348C45.5028 86.548 45.8754 86.5133 46.1528 86.444C46.4301 86.3747 46.6641 86.2187 46.8548 85.976C47.0454 85.7507 47.2274 85.4127 47.4008 84.962L48.0508 83.298H47.4008L43.5008 74.796H41.5248V73.782H46.5948V74.796H44.9308L48.3368 82.466L51.4568 74.796H49.5328V73.782H54.5248V74.796H52.8608L48.6748 84.884C48.4148 85.56 48.1548 86.0973 47.8948 86.496C47.6348 86.912 47.2968 87.2153 46.8808 87.406C46.4648 87.614 45.8754 87.718 45.1128 87.718H43.9168ZM63.457 84V82.986H65.563V70.376H63.457V69.362H69.203V70.376H67.097V75.992H75.833V70.376H73.701V69.362H79.447V70.376H77.341V82.986H79.447V84H73.701V82.986H75.833V77.084H67.097V82.986H69.203V84H63.457ZM86.9068 84.312C85.8321 84.312 84.8788 84.0867 84.0468 83.636C83.2321 83.168 82.5908 82.5267 82.1228 81.712C81.6548 80.8973 81.4208 79.944 81.4208 78.852C81.4208 77.7773 81.6548 76.8413 82.1228 76.044C82.5908 75.2293 83.2321 74.6053 84.0468 74.172C84.8788 73.7213 85.8321 73.496 86.9068 73.496C87.9988 73.496 88.9608 73.7213 89.7928 74.172C90.6248 74.6053 91.2748 75.2293 91.7428 76.044C92.2108 76.8413 92.4448 77.7773 92.4448 78.852C92.4448 79.9267 92.2108 80.88 91.7428 81.712C91.2748 82.5267 90.6248 83.168 89.7928 83.636C88.9608 84.0867 87.9988 84.312 86.9068 84.312ZM86.9068 83.22C87.7214 83.22 88.4321 83.038 89.0388 82.674C89.6628 82.2927 90.1481 81.7813 90.4948 81.14C90.8414 80.4813 91.0148 79.7187 91.0148 78.852C91.0148 78.0027 90.8414 77.2573 90.4948 76.616C90.1481 75.9747 89.6628 75.4807 89.0388 75.134C88.4321 74.77 87.7214 74.588 86.9068 74.588C86.1094 74.588 85.4074 74.77 84.8008 75.134C84.1941 75.4807 83.7174 75.9747 83.3708 76.616C83.0241 77.2573 82.8508 78.0027 82.8508 78.852C82.8508 79.7187 83.0241 80.4813 83.3708 81.14C83.7174 81.7813 84.1941 82.2927 84.8008 82.674C85.4074 83.038 86.1094 83.22 86.9068 83.22ZM93.6548 84V82.986H95.7608V74.796H93.6808V73.782H97.1388V75.03L96.6188 75.16C97.3468 74.6573 98.0921 74.2587 98.8548 73.964C99.6348 73.6693 100.354 73.522 101.013 73.522C102.053 73.522 102.85 73.8427 103.405 74.484C103.977 75.108 104.263 75.9053 104.263 76.876V82.986H106.135V84H100.935V82.986H102.859V76.928C102.859 76.2 102.659 75.6367 102.261 75.238C101.879 74.822 101.351 74.614 100.675 74.614C100.137 74.614 99.5048 74.7527 98.7768 75.03C98.0488 75.3073 97.3121 75.6713 96.5668 76.122L97.1388 75.524V82.986H99.1408V84H93.6548ZM108.111 84V82.986H110.061V76.928C110.061 76.2 109.861 75.6367 109.463 75.238C109.064 74.822 108.527 74.614 107.851 74.614C107.244 74.614 106.594 74.744 105.901 75.004C105.225 75.2467 104.575 75.5933 103.951 76.044L103.639 75.212C104.401 74.7093 105.138 74.302 105.849 73.99C106.577 73.678 107.357 73.522 108.189 73.522C109.125 73.522 109.896 73.808 110.503 74.38C111.127 74.952 111.439 75.7667 111.439 76.824V82.986H113.337V84H108.111ZM119.714 84.312C118.692 84.312 117.756 84.0953 116.906 83.662C116.057 83.2113 115.372 82.5787 114.852 81.764C114.35 80.9493 114.098 79.996 114.098 78.904C114.098 77.7427 114.341 76.7633 114.826 75.966C115.329 75.1687 115.979 74.562 116.776 74.146C117.591 73.7127 118.475 73.496 119.428 73.496C120.399 73.496 121.257 73.704 122.002 74.12C122.765 74.5187 123.354 75.1253 123.77 75.94C124.204 76.7373 124.42 77.708 124.42 78.852V79.19H115.32L115.346 78.306H123.042C123.042 77.474 122.878 76.7807 122.548 76.226C122.219 75.654 121.777 75.2293 121.222 74.952C120.685 74.6747 120.087 74.536 119.428 74.536C118.718 74.536 118.068 74.7093 117.478 75.056C116.889 75.3853 116.412 75.862 116.048 76.486C115.702 77.11 115.528 77.864 115.528 78.748C115.528 79.6493 115.702 80.438 116.048 81.114C116.412 81.7727 116.906 82.2927 117.53 82.674C118.172 83.038 118.882 83.22 119.662 83.22C120.46 83.22 121.214 83.0553 121.924 82.726C122.652 82.3793 123.25 81.9547 123.718 81.452L124.212 82.362C123.658 82.9513 122.999 83.428 122.236 83.792C121.474 84.1387 120.633 84.312 119.714 84.312ZM134.869 78.254V77.188H141.239V78.254H134.869ZM151.088 84V82.986H153.194V74.796H151.114V73.782H154.572V75.03L154.052 75.16C154.78 74.6573 155.526 74.2587 156.288 73.964C157.068 73.6693 157.788 73.522 158.446 73.522C159.486 73.522 160.284 73.8427 160.838 74.484C161.41 75.108 161.696 75.9053 161.696 76.876V82.986H163.568V84H158.368V82.986H160.292V76.928C160.292 76.2 160.093 75.6367 159.694 75.238C159.313 74.822 158.784 74.614 158.108 74.614C157.571 74.614 156.938 74.7527 156.21 75.03C155.482 75.3073 154.746 75.6713 154 76.122L154.572 75.524V82.986H156.574V84H151.088ZM165.544 84V82.986H167.494V76.928C167.494 76.2 167.295 75.6367 166.896 75.238C166.498 74.822 165.96 74.614 165.284 74.614C164.678 74.614 164.028 74.744 163.334 75.004C162.658 75.2467 162.008 75.5933 161.384 76.044L161.072 75.212C161.835 74.7093 162.572 74.302 163.282 73.99C164.01 73.678 164.79 73.522 165.622 73.522C166.558 73.522 167.33 73.808 167.936 74.38C168.56 74.952 168.872 75.7667 168.872 76.824V82.986H170.77V84H165.544ZM173.612 87.718V86.548H174.73C175.198 86.548 175.571 86.5133 175.848 86.444C176.125 86.3747 176.359 86.2187 176.55 85.976C176.741 85.7507 176.923 85.4127 177.096 84.962L177.746 83.298H177.096L173.196 74.796H171.22V73.782H176.29V74.796H174.626L178.032 82.466L181.152 74.796H179.228V73.782H184.22V74.796H182.556L178.37 84.884C178.11 85.56 177.85 86.0973 177.59 86.496C177.33 86.912 176.992 87.2153 176.576 87.406C176.16 87.614 175.571 87.718 174.808 87.718H173.612ZM198.066 84.26C197.009 84.26 196.073 84.026 195.258 83.558C194.444 83.09 193.802 82.4487 193.334 81.634C192.866 80.8193 192.632 79.8833 192.632 78.826C192.632 77.786 192.858 76.8673 193.308 76.07C193.759 75.2727 194.383 74.6487 195.18 74.198C195.995 73.73 196.914 73.496 197.936 73.496C198.907 73.496 199.73 73.7213 200.406 74.172C201.082 74.6053 201.516 75.1513 201.706 75.81H201.394V73.756H202.616V77.11H201.524C201.386 76.3473 201.022 75.7407 200.432 75.29C199.843 74.822 199.106 74.588 198.222 74.588C197.408 74.588 196.688 74.77 196.064 75.134C195.44 75.498 194.946 76.0007 194.582 76.642C194.236 77.266 194.062 77.994 194.062 78.826C194.062 79.6753 194.236 80.4293 194.582 81.088C194.946 81.7293 195.432 82.2407 196.038 82.622C196.662 82.986 197.373 83.168 198.17 83.168C199.054 83.168 199.791 83.012 200.38 82.7C200.97 82.3707 201.524 81.9287 202.044 81.374L202.616 82.232C202.079 82.856 201.438 83.35 200.692 83.714C199.947 84.078 199.072 84.26 198.066 84.26ZM208.564 84.286C207.524 84.286 206.684 84 206.042 83.428C205.401 82.8387 205.08 82.1107 205.08 81.244C205.08 80.464 205.254 79.8487 205.6 79.398C205.964 78.9473 206.441 78.6267 207.03 78.436C207.62 78.2453 208.261 78.15 208.954 78.15C209.578 78.15 210.22 78.202 210.878 78.306C211.537 78.3927 212.187 78.514 212.828 78.67L212.23 78.8V77.24C212.23 76.3213 211.979 75.6453 211.476 75.212C210.991 74.7787 210.35 74.562 209.552 74.562C209.015 74.562 208.426 74.6487 207.784 74.822C207.16 74.978 206.571 75.1947 206.016 75.472L205.6 74.51C206.242 74.1633 206.918 73.912 207.628 73.756C208.356 73.6 208.989 73.522 209.526 73.522C210.497 73.522 211.277 73.6867 211.866 74.016C212.473 74.328 212.915 74.7527 213.192 75.29C213.47 75.8273 213.608 76.4167 213.608 77.058V82.986H215.22V84H212.438L212.256 82.648H212.802C212.057 83.2027 211.346 83.6187 210.67 83.896C210.012 84.156 209.31 84.286 208.564 84.286ZM208.746 83.298C209.388 83.298 210.029 83.168 210.67 82.908C211.312 82.648 212.031 82.2407 212.828 81.686L212.23 82.362V79.138L212.724 79.502C212.152 79.346 211.554 79.2247 210.93 79.138C210.306 79.0513 209.674 79.008 209.032 79.008C208.374 79.008 207.776 79.164 207.238 79.476C206.701 79.788 206.432 80.36 206.432 81.192C206.432 81.764 206.632 82.258 207.03 82.674C207.429 83.09 208.001 83.298 208.746 83.298ZM222.141 84.26C221.552 84.26 220.98 84.182 220.425 84.026C219.888 83.8873 219.429 83.688 219.047 83.428C218.683 83.168 218.415 82.882 218.241 82.57L218.579 82.856V84H217.435V80.672H218.475L218.605 82.388L218.189 81.27C218.484 81.9287 218.978 82.4313 219.671 82.778C220.382 83.1073 221.153 83.272 221.985 83.272C222.748 83.272 223.381 83.116 223.883 82.804C224.386 82.492 224.637 82.0587 224.637 81.504C224.637 80.8453 224.421 80.3947 223.987 80.152C223.571 79.892 222.895 79.6667 221.959 79.476L220.399 79.138C219.515 78.93 218.805 78.6353 218.267 78.254C217.73 77.8553 217.461 77.2053 217.461 76.304C217.461 75.4027 217.817 74.718 218.527 74.25C219.255 73.7647 220.148 73.522 221.205 73.522C221.656 73.522 222.115 73.5827 222.583 73.704C223.051 73.8253 223.485 74.0073 223.883 74.25C224.282 74.4927 224.577 74.7873 224.767 75.134L224.351 74.9V73.756H225.495V77.188H224.455L224.221 74.9L224.585 76.174C224.499 75.862 224.282 75.5933 223.935 75.368C223.606 75.1253 223.216 74.926 222.765 74.77C222.315 74.614 221.855 74.536 221.387 74.536C220.729 74.536 220.139 74.6747 219.619 74.952C219.117 75.2293 218.865 75.6627 218.865 76.252C218.865 76.7547 219.056 77.1273 219.437 77.37C219.819 77.6127 220.356 77.812 221.049 77.968L222.531 78.28C223.259 78.4533 223.875 78.6527 224.377 78.878C224.897 79.1033 225.287 79.4153 225.547 79.814C225.825 80.1953 225.963 80.724 225.963 81.4C225.963 82.0587 225.781 82.6047 225.417 83.038C225.053 83.454 224.577 83.766 223.987 83.974C223.398 84.1647 222.783 84.26 222.141 84.26ZM232.554 84C231.601 84 230.847 83.7747 230.292 83.324C229.755 82.8733 229.486 82.128 229.486 81.088V74.796H227.692V73.782H229.486V70.272L230.89 69.752V73.782H233.724V74.796H230.89V81.01C230.89 81.738 231.029 82.2493 231.306 82.544C231.601 82.8387 232.086 82.986 232.762 82.986H234.062V84H232.554ZM235.491 84V82.986H237.389V70.116H235.569V69.102H238.793V82.986H240.561V84H235.491ZM247.455 84.312C246.432 84.312 245.496 84.0953 244.647 83.662C243.797 83.2113 243.113 82.5787 242.593 81.764C242.09 80.9493 241.839 79.996 241.839 78.904C241.839 77.7427 242.081 76.7633 242.567 75.966C243.069 75.1687 243.719 74.562 244.517 74.146C245.331 73.7127 246.215 73.496 247.169 73.496C248.139 73.496 248.997 73.704 249.743 74.12C250.505 74.5187 251.095 75.1253 251.511 75.94C251.944 76.7373 252.161 77.708 252.161 78.852V79.19H243.061L243.087 78.306H250.783C250.783 77.474 250.618 76.7807 250.289 76.226C249.959 75.654 249.517 75.2293 248.963 74.952C248.425 74.6747 247.827 74.536 247.169 74.536C246.458 74.536 245.808 74.7093 245.219 75.056C244.629 75.3853 244.153 75.862 243.789 76.486C243.442 77.11 243.269 77.864 243.269 78.748C243.269 79.6493 243.442 80.438 243.789 81.114C244.153 81.7727 244.647 82.2927 245.271 82.674C245.912 83.038 246.623 83.22 247.403 83.22C248.2 83.22 248.954 83.0553 249.665 82.726C250.393 82.3793 250.991 81.9547 251.459 81.452L251.953 82.362C251.398 82.9513 250.739 83.428 249.977 83.792C249.214 84.1387 248.373 84.312 247.455 84.312Z" fill="black"/>
<path d="M36.5303 16.9L1.76285 57.9201C1.1608 58.6304 0 58.2047 0 57.2735V44.3668C0 44.13 0.0840351 43.9009 0.237146 43.7202L36.5303 0.900046C36.9297 0.428809 37.6566 0.428807 38.056 0.900044L74.3211 43.6872C74.491 43.8876 74.733 44.0132 74.9947 44.0366L253 60H75.0496C74.7557 60 74.4767 59.8707 74.2867 59.6466L38.056 16.9C37.6566 16.4288 36.9297 16.4288 36.5303 16.9Z" fill="#FE753F"/>
<path d="M12.2 52.4L6.7 59.7333C6.57018 59.9064 6.5 60.117 6.5 60.3333V93C6.5 93.5523 6.94772 94 7.5 94H13C13.5523 94 14 93.5523 14 93V78.5V53C14 52.039 12.7766 51.6312 12.2 52.4Z" fill="#FE753F"/>
<path d="M251.972 103.972L0 97H252C252.552 97 253 97.4477 253 98V102.972C253 103.535 252.535 103.987 251.972 103.972Z" fill="#FE753F"/>
<path d="M29 49V46C29 45.4477 29.4477 45 30 45H33C33.5523 45 34 45.4477 34 46V49C34 49.5523 33.5523 50 33 50H30C29.4477 50 29 49.5523 29 49Z" fill="white" stroke="black"/>
<path d="M37 56V53C37 52.4477 37.4477 52 38 52H41C41.5523 52 42 52.4477 42 53V56C42 56.5523 41.5523 57 41 57H38C37.4477 57 37 56.5523 37 56Z" stroke="black"/>
<path d="M29 56V53C29 52.4477 29.4477 52 30 52H33C33.5523 52 34 52.4477 34 53V56C34 56.5523 33.5523 57 33 57H30C29.4477 57 29 56.5523 29 56Z" fill="#FE753F"/>
<path d="M37 49V46C37 45.4477 37.4477 45 38 45H41C41.5523 45 42 45.4477 42 46V49C42 49.5523 41.5523 50 41 50H38C37.4477 50 37 49.5523 37 49Z" fill="#FE753F"/>
</svg>
