<svg width="32" height="30" viewBox="0 0 32 30" fill="none" xmlns="http://www.w3.org/2000/svg">
<rect x="0.0595398" width="31.5236" height="30" rx="15" fill="#FE753F"/>
<g clip-path="url(#clip0_1_130)">
<path d="M14.0119 17.1207L13.7337 20.8433C14.1316 20.8433 14.304 20.6807 14.5106 20.4853L16.3761 18.7887L20.2416 21.4827C20.9506 21.8587 21.45 21.6607 21.6413 20.862L24.1786 9.54734L24.1793 9.54667C24.4041 8.54934 23.8003 8.15934 23.1096 8.40401L8.1954 13.838C7.17753 14.214 7.19294 14.754 8.02237 14.9987L11.8353 16.1273L20.6921 10.8533C21.1089 10.5907 21.4879 10.736 21.1761 10.9987L14.0119 17.1207Z" fill="white"/>
</g>
<defs>
<clipPath id="clip0_1_130">
<rect width="16.8126" height="16" fill="white" transform="translate(7.41507 7)"/>
</clipPath>
</defs>
</svg>
