<svg width="33" height="30" viewBox="0 0 33 30" fill="none" xmlns="http://www.w3.org/2000/svg">
<rect x="0.774078" width="31.5236" height="30" rx="15" fill="#FE753F"/>
<g clip-path="url(#clip0_1_136)">
<path d="M21.7803 10.4488C21.3506 10.4488 20.9889 10.5311 20.812 11.1153C20.5762 11.8941 19.5484 13.607 18.9657 14.4651C18.551 15.076 18.0013 14.651 17.9683 14.3892C17.885 13.7291 17.9683 11.2077 17.9683 11.2077C17.9683 10.7111 17.6453 10.4552 17.2885 10.4552H14.6229C14.1861 10.4552 13.9664 10.9602 14.5928 11.329C15.136 11.6487 15.282 11.6681 15.282 12.1186V14.9704C15.282 15.2142 14.896 15.488 14.5746 15.1751C14.0936 14.7067 12.4383 11.3925 12.4383 11.3925C12.4383 11.3925 12.0015 10.4552 10.8365 10.4552H9.01215C8.81045 10.4552 8.53818 10.7042 8.70501 11.0138C8.70501 11.0138 10.6904 15.5773 12.5077 17.452C14.3249 19.3266 15.8369 19.551 15.8369 19.551H17.4411C17.4411 19.551 18.0029 19.5642 18.0029 19.0163V17.452C17.9784 17.0788 18.5065 16.7967 18.9657 17.2708L20.6583 19.0182C21.0763 19.4358 21.5619 19.551 22.0286 19.551H24.0349C24.3438 19.551 24.6516 19.1746 24.1513 18.6985L21.7183 16.0526C21.7183 16.0526 21.3299 15.7226 21.6628 15.2209C21.9957 14.7193 23.6775 11.6037 23.7607 11.3925C23.985 10.9442 23.8296 10.4552 23.2715 10.4552C23.2715 10.4552 21.8516 10.4488 21.7803 10.4488Z" fill="white"/>
</g>
<defs>
<clipPath id="clip0_1_136">
<rect width="16.8126" height="16" fill="white" transform="translate(8.12961 7)"/>
</clipPath>
</defs>
</svg>
