<svg width="46" height="46" viewBox="0 0 46 46" fill="none" xmlns="http://www.w3.org/2000/svg">
<rect opacity="0.1" width="46" height="46" rx="5" fill="#FE753F"/>
<path d="M36.7437 21.9515L25.8618 11.1721C24.2835 9.6093 21.7165 9.6093 20.1382 11.1721L9.25635 21.9515C8.91455 22.29 8.91455 22.8388 9.25635 23.1773C9.5976 23.5159 10.1521 23.5159 10.4934 23.1773L11.1874 22.4899V33.5082C11.1874 34.8844 12.3137 36 13.703 36H18.0781C18.3801 36 18.625 35.7575 18.625 35.4583V27.4411C18.625 25.9452 19.8492 24.7326 21.3594 24.7326H24.6406C26.1508 24.7326 27.375 25.9452 27.375 27.4411V35.4583C27.375 35.7575 27.6199 36 27.9219 36H32.297C33.6863 36 34.8126 34.8844 34.8126 33.5082V22.4899L35.5066 23.1773C35.6772 23.3464 35.9015 23.4314 36.1251 23.4314C36.3488 23.4314 36.573 23.3464 36.7437 23.1773C37.0855 22.8388 37.0855 22.29 36.7437 21.9515V21.9515Z" fill="#FE753F"/>
</svg>
