<svg width="46" height="46" viewBox="0 0 46 46" fill="none" xmlns="http://www.w3.org/2000/svg">
<rect opacity="0.1" width="46" height="46" rx="5" fill="#FE753F"/>
<path d="M28.9089 11.0382C28.6134 11.0577 28.1958 11.0867 27.9845 11.106L27.5997 11.1446L28.3506 11.6095C31.0111 13.2754 33.0146 15.2851 34.5068 17.8082C34.8259 18.3458 34.8587 18.3893 34.8822 18.2682C34.8961 18.1908 34.9385 17.5999 34.9667 16.946C35.0465 15.3769 34.976 13.2946 34.8305 12.8781C34.6711 12.4034 34.5349 12.1855 34.1923 11.8321C33.62 11.2414 33.2446 11.0961 32.0997 11.038C31.1752 10.9849 29.7205 10.9897 28.9089 11.0382Z" fill="#FE753F"/>
<path d="M24.4513 11.789C21.5233 12.6752 19.0506 14.2443 16.5919 16.782C14.1473 19.3099 12.5942 21.9105 11.7496 24.9131C11.6604 25.2326 11.5852 25.5619 11.5806 25.6443C11.5759 25.8331 12.3971 27.5572 12.8381 28.2788C13.1947 28.8599 13.6593 29.5381 13.7014 29.5381C13.7156 29.5333 13.8657 29.2815 14.0344 28.9714C14.3393 28.4098 15.353 26.7873 15.7237 26.2691L15.9209 25.9931L15.4002 25.4504C14.9545 24.9856 14.8793 24.8789 14.8793 24.7483C14.8793 24.54 15.0576 24.356 15.2594 24.356C15.386 24.356 15.4847 24.4336 15.8929 24.8499L16.3808 25.3392L16.4841 25.1987C16.5451 25.1213 16.7422 24.8645 16.9298 24.6224L17.2629 24.1866L16.7187 23.6199C16.2213 23.1018 16.1743 23.034 16.1743 22.874C16.1743 22.7386 16.2071 22.6706 16.3105 22.5786C16.5311 22.3802 16.6624 22.4431 17.2489 23.0485L17.7652 23.5762L18.1969 23.0581L18.6287 22.5399L18.0892 21.978C17.6153 21.4793 17.5543 21.3969 17.5543 21.2468C17.5543 21.0289 17.7137 20.8692 17.9297 20.8692C18.0659 20.8692 18.1504 20.9369 18.6101 21.402C18.8963 21.6926 19.1449 21.9348 19.1591 21.9348C19.1731 21.9348 19.3891 21.7071 19.6423 21.4262L20.1022 20.9129L19.5762 20.3657C19.1163 19.8814 19.0553 19.799 19.0553 19.6488C19.0553 19.4309 19.2147 19.2712 19.4307 19.2712C19.5669 19.2712 19.656 19.3389 20.1157 19.8088L20.6459 20.3512L21.0117 20.0075C21.2135 19.8235 21.4388 19.6008 21.5138 19.5184L21.6546 19.3683L21.1526 18.8405C20.6973 18.3706 20.6505 18.2981 20.6505 18.1383C20.6505 17.9058 20.7818 17.7703 21.0117 17.7703C21.1665 17.7703 21.2321 17.8188 21.7109 18.3079L22.2365 18.8455L22.7103 18.4194L23.1842 17.9932L22.6915 17.4751C22.2269 16.9908 22.1987 16.9521 22.1987 16.7633C22.1987 16.6084 22.2269 16.5454 22.3207 16.4678C22.5553 16.279 22.6398 16.3225 23.231 16.9279L23.7847 17.4897L24.2679 17.0878C24.5353 16.87 24.7746 16.6713 24.8027 16.647C24.8309 16.6228 24.6666 16.4195 24.3898 16.1337C23.8503 15.5718 23.794 15.4363 24.0191 15.2038C24.263 14.952 24.3521 14.9907 24.9435 15.5961L25.4691 16.1289L26.1869 15.6203C26.9377 15.0827 28.0121 14.3757 28.5469 14.0706C28.7205 13.969 28.8614 13.8672 28.8614 13.8429C28.8614 13.78 27.7493 13.0341 27.055 12.6322C26.3651 12.2351 25.1453 11.6201 25.0515 11.6201C25.019 11.6242 24.7469 11.697 24.4513 11.789Z" fill="#FE753F"/>
<path d="M28.8806 14.772C27.8998 15.3678 26.3327 16.4185 26.0746 16.6607C26.0465 16.6849 26.2012 16.8882 26.4594 17.1594C26.8206 17.5372 26.8911 17.6341 26.8911 17.7647C26.8911 17.973 26.7128 18.157 26.511 18.157C26.3844 18.157 26.2857 18.0794 25.8775 17.6679L25.3941 17.1788L24.9013 17.5711C24.6293 17.789 24.3946 17.9925 24.3758 18.0167C24.3569 18.0458 24.5259 18.2589 24.7512 18.4914C25.1124 18.8642 25.1548 18.9272 25.1548 19.0872C25.1548 19.2227 25.1266 19.2906 25.0328 19.3632C24.7936 19.5568 24.6763 19.5085 24.1789 19.0096L23.719 18.5496L23.264 18.9613C23.0154 19.1888 22.809 19.3875 22.809 19.4069C22.809 19.4216 22.9872 19.6248 23.2079 19.8573C23.5598 20.2254 23.6068 20.2981 23.6068 20.4531C23.6068 20.6419 23.4802 20.8163 23.3394 20.8259C23.1236 20.8403 23.0392 20.7872 22.6356 20.3755L22.2087 19.9349L21.7113 20.4096C21.4393 20.676 21.214 20.8987 21.214 20.9134C21.214 20.923 21.3922 21.1264 21.6129 21.359C21.9648 21.727 22.0118 21.7998 22.0118 21.9547C22.0118 22.1436 21.8852 22.318 21.7397 22.3276C21.5333 22.342 21.4442 22.2889 21.0641 21.8966L20.6558 21.4801L20.5525 21.5769C20.4962 21.6254 20.2851 21.8625 20.074 22.095L19.6985 22.5212L20.1068 22.9473C20.4352 23.2961 20.5104 23.4026 20.5104 23.5236C20.5104 23.7463 20.4633 23.8287 20.3039 23.8965C20.0975 23.9885 19.9802 23.9207 19.5484 23.4799L19.1683 23.0975L18.7361 23.6101L18.2997 24.1282L18.7219 24.5739C19.2004 25.0773 19.2521 25.2227 19.0317 25.4456C18.8159 25.6734 18.6705 25.62 18.2106 25.1549L17.8023 24.7432L17.4083 25.2614C17.1879 25.552 16.9907 25.8134 16.9719 25.8521C16.9437 25.8955 17.0657 26.0555 17.3848 26.3849C17.9243 26.9417 17.9759 27.0774 17.746 27.3148C17.5207 27.5473 17.3848 27.494 16.892 26.9902C16.6667 26.7577 16.4649 26.5836 16.437 26.6028C16.3151 26.6804 15.1046 28.6077 14.5555 29.6005L14.2129 30.2157L14.4475 30.4965C14.5741 30.6467 14.9309 31.0243 15.2358 31.3296C16.5778 32.671 18.1919 33.814 20.1202 34.7826L20.8897 35.1653L21.2042 35.0829C21.7155 34.9522 22.6258 34.6373 23.2265 34.3807C25.6571 33.3492 27.7825 31.7705 29.9974 29.3442C32.1228 27.0244 33.5258 24.5112 34.2813 21.7022L34.4407 21.1065L34.2624 20.6803C33.2958 18.4237 31.8461 16.3799 30.1286 14.8544C29.833 14.5928 29.5796 14.3798 29.5656 14.3798C29.5468 14.3798 29.2419 14.559 28.8806 14.772Z" fill="#FE753F"/>
<path d="M11.107 28.4867C11.0225 28.816 10.9708 31.0486 11.0178 32.3028C11.0648 33.5232 11.0788 33.6541 11.1821 33.9541C11.5012 34.8403 12.2051 35.4747 13.0683 35.6587C13.7675 35.8137 17.0988 35.8041 18.1499 35.6491L18.3752 35.6153L17.9763 35.3779C17.3662 35.0195 16.1839 34.1915 15.6116 33.7314C13.922 32.3658 12.5332 30.758 11.44 28.8984C11.1866 28.4675 11.1302 28.3997 11.107 28.4867Z" fill="#FE753F"/>
</svg>
