<svg width="35" height="35" viewBox="0 0 35 35" fill="none" xmlns="http://www.w3.org/2000/svg">
<path d="M8.28947 0.142822C5.24382 0.142822 2.76316 2.50536 2.76316 5.40598V19.0025H4.60526V5.40598C4.60526 3.44695 6.23249 1.89721 8.28947 1.89721C10.0251 1.89721 11.4542 3.00727 11.8586 4.52879H13.7294C13.287 2.0463 11.0195 0.142822 8.28947 0.142822ZM12.8947 5.40598C10.8537 5.40598 9.21053 6.97089 9.21053 8.91475H16.5789C16.5789 6.97089 14.9358 5.40598 12.8947 5.40598ZM10.1316 10.6691C9.62288 10.6691 9.21053 11.0619 9.21053 11.5463V12.4235C9.21053 12.908 9.62288 13.3007 10.1316 13.3007C10.6403 13.3007 11.0526 12.908 11.0526 12.4235V11.5463C11.0526 11.0619 10.6403 10.6691 10.1316 10.6691ZM15.6579 10.6691C15.1492 10.6691 14.7368 11.0619 14.7368 11.5463V12.4235C14.7368 12.908 15.1492 13.3007 15.6579 13.3007C16.1666 13.3007 16.5789 12.908 16.5789 12.4235V11.5463C16.5789 11.0619 16.1666 10.6691 15.6579 10.6691ZM12.8947 13.7393C12.386 13.7393 11.9737 14.1321 11.9737 14.6165V15.4937C11.9737 15.9782 12.386 16.3709 12.8947 16.3709C13.4034 16.3709 13.8158 15.9782 13.8158 15.4937V14.6165C13.8158 14.1321 13.4034 13.7393 12.8947 13.7393ZM0 19.8797C0 25.9542 5.13487 30.8446 11.5132 30.8446H23.4868C29.8651 30.8446 35 25.9542 35 19.8797H0ZM9.32566 31.7218C9.68275 33.2368 10.9278 34.3534 12.4342 34.3534H22.5658C24.0722 34.3534 25.3172 33.2368 25.6743 31.7218H9.32566Z" fill="#030A1B"/>
</svg>
