<svg width="34" height="40" viewBox="0 0 34 40" fill="none" xmlns="http://www.w3.org/2000/svg">
<g opacity="0.7">
<path d="M10.1561 15.4392L13.5123 21.0004L15.8654 18.1168L12.355 13.709C13.8595 11.3609 13.4737 7.48867 11.2363 4.31671C8.61311 0.568034 4.40829 -0.873771 1.86227 1.14475C-0.68376 3.16327 -0.606598 7.85943 2.01658 11.6081C4.29257 14.8213 7.64869 16.3043 10.1561 15.4392Z" fill="#030A1B"/>
<path d="M20.1486 23.512L17.6025 27.755L23.7747 37.93C24.662 39.413 26.5522 39.7837 27.9024 38.7127L28.1338 38.5067C29.4454 37.4356 29.6769 35.4171 28.5967 34.0577L20.1486 23.512Z" fill="#030A1B"/>
<path d="M33.4987 4.60529C33.1515 4.15215 32.4957 4.19334 32.1871 4.64648C32.1871 4.64648 27.7894 10.6608 26.555 12.3498C26.3621 12.597 26.0149 12.6382 25.7834 12.4734C25.552 12.2674 25.4748 11.9379 25.6677 11.6495L30.9526 3.69901C31.1841 3.36946 31.1841 2.87513 30.9141 2.54558C30.5669 2.09244 29.9111 2.13363 29.6025 2.58676C29.6025 2.58676 25.2048 8.60113 23.9704 10.2901C23.7775 10.5373 23.4303 10.5785 23.1988 10.4137C22.9674 10.2077 22.8902 9.87815 23.0831 9.58979C24.279 7.81844 28.4066 1.59811 28.4066 1.59811C28.7152 1.14498 28.5609 0.485849 28.0594 0.238683C27.7122 0.0739061 27.2879 0.197494 27.0179 0.527048L21.0772 8.68351L20.3056 9.75458C19.5341 10.8668 19.1869 12.185 19.3412 13.3385L19.6884 15.7277L4.91374 34.018C3.83361 35.3774 4.06507 37.3959 5.37666 38.467L5.60811 38.673C6.9197 39.744 8.80993 39.3733 9.73576 37.8903L21.9258 17.5815L24.2018 17.2519C25.2819 17.0872 26.3621 16.3457 27.1722 15.2334L27.9437 14.1624L33.5373 5.75873C33.7687 5.42917 33.7687 4.93485 33.4987 4.60529Z" fill="#030A1B"/>
</g>
</svg>
